<svg width="154" height="22" viewBox="0 0 154 22" fill="none" xmlns="http://www.w3.org/2000/svg">
<path d="M7.80583 1.3343V10.309H8.30741C10.7422 10.309 12.0797 9.05415 12.3201 6.5444H13.48V15.3285H12.4611C12.388 14.2484 12.0484 13.3165 11.4423 12.5329C10.8467 11.7492 9.8017 11.3574 8.30741 11.3574H7.80583V20.5545H10.8153V21.6029H0V20.5545H2.66464V1.3343H0V0.301805H17.618L17.7904 6.79856H16.6932C15.9617 3.15572 14.1017 1.3343 11.1131 1.3343H7.80583Z" fill="#1D1D1D"/>
<path d="M25.7442 22C23.6438 22 21.9667 21.3223 20.7127 19.9668C19.4588 18.6113 18.8318 17.0335 18.8318 15.2332C18.8318 13.4118 19.4692 11.8233 20.7441 10.4679C22.0189 9.11239 23.6856 8.43466 25.7442 8.43466C27.8237 8.43466 29.5008 9.1071 30.7757 10.452C32.061 11.7863 32.7036 13.38 32.7036 15.2332C32.7036 17.0758 32.0662 18.6643 30.7913 19.9986C29.5269 21.3329 27.8446 22 25.7442 22ZM25.7442 9.24477C25.1904 9.24477 24.7463 9.38243 24.4119 9.65776C24.0775 9.9225 23.8737 10.3355 23.8006 10.8968C23.7274 11.4474 23.6909 12.8929 23.6909 15.2332C23.6909 17.51 23.7222 18.9078 23.7849 19.4267C23.8581 19.9456 24.067 20.3692 24.4119 20.6975C24.7672 21.0152 25.2426 21.174 25.8382 21.174C26.3189 21.174 26.7369 21.0363 27.0922 20.761C27.4579 20.4751 27.6774 19.9668 27.7505 19.2361C27.8237 18.4948 27.8602 17.2452 27.8602 15.4874C27.8602 12.7446 27.7557 11.0185 27.5468 10.309C27.3378 9.59952 26.7369 9.24477 25.7442 9.24477Z" fill="#1D1D1D"/>
<path d="M41.0336 4.84477V8.81588H44.1998V9.80072H41.0336V18.4736C41.0336 19.6279 41.3837 20.2051 42.0838 20.2051C42.7212 20.2051 43.2019 19.6279 43.5258 18.4736H44.4976C44.3095 19.6809 43.8916 20.5439 43.2437 21.0628C42.5958 21.5711 41.5561 21.8253 40.1245 21.8253C39.1004 21.8253 38.3428 21.6611 37.8517 21.3329C37.371 21.0046 37.0732 20.618 36.9583 20.1733C36.8433 19.7285 36.7859 19.162 36.7859 18.4736V9.80072H35.0303V8.81588H36.7859V5.59134L41.0336 4.84477Z" fill="#1D1D1D"/>
<path d="M53.7838 22C51.6834 22 50.0062 21.3223 48.7523 19.9668C47.4983 18.6113 46.8714 17.0335 46.8714 15.2332C46.8714 13.4118 47.5088 11.8233 48.7836 10.4679C50.0585 9.11239 51.7252 8.43466 53.7838 8.43466C55.8632 8.43466 57.5404 9.1071 58.8152 10.452C60.1005 11.7863 60.7432 13.38 60.7432 15.2332C60.7432 17.0758 60.1058 18.6643 58.8309 19.9986C57.5665 21.3329 55.8841 22 53.7838 22ZM53.7838 9.24477C53.2299 9.24477 52.7858 9.38243 52.4514 9.65776C52.1171 9.9225 51.9133 10.3355 51.8401 10.8968C51.767 11.4474 51.7304 12.8929 51.7304 15.2332C51.7304 17.51 51.7618 18.9078 51.8245 19.4267C51.8976 19.9456 52.1066 20.3692 52.4514 20.6975C52.8067 21.0152 53.2822 21.174 53.8778 21.174C54.3585 21.174 54.7765 21.0363 55.1318 20.761C55.4975 20.4751 55.7169 19.9668 55.7901 19.2361C55.8632 18.4948 55.8998 17.2452 55.8998 15.4874C55.8998 12.7446 55.7953 11.0185 55.5863 10.309C55.3773 9.59952 54.7765 9.24477 53.7838 9.24477Z" fill="#1D1D1D"/>
<path d="M81.4246 14.2484V18.3783C78.9689 20.7187 76.3147 21.8888 73.462 21.8888C70.6719 21.8888 68.3365 20.8245 66.4555 18.696C64.5746 16.5675 63.6342 13.9783 63.6342 10.9285C63.6342 7.83634 64.6269 5.24188 66.6123 3.14513C68.5977 1.04838 70.8809 0 73.462 0C75.3743 0 77.1193 0.651264 78.6972 1.95379C79.0525 1.58315 79.4705 1.10662 79.9512 0.524188H81.0014V6.86209H79.9512C78.8122 2.98628 76.6491 1.04838 73.462 1.04838C72.3857 1.04838 71.5288 1.29194 70.8914 1.77906C70.2644 2.26619 69.8726 3.01276 69.7158 4.01877C69.5591 5.0142 69.4807 7.03682 69.4807 10.0866C69.4807 13.0412 69.4911 15.2491 69.512 16.7105C69.5434 18.1613 69.8621 19.199 70.4682 19.8238C71.0742 20.4486 71.9886 20.761 73.2112 20.761C74.1725 20.761 74.8727 20.5969 75.3116 20.2686C75.7504 19.9297 76.0169 19.485 76.1109 18.9343C76.205 18.3836 76.252 17.5365 76.252 16.3928V14.2484H73.4306V13.2159H83.0704V14.2484H81.4246Z" fill="#1D1D1D"/>
<path d="M90.4599 8.62527V12.1357H90.5226C90.7734 10.8862 91.1861 9.95957 91.7609 9.35596C92.3356 8.74176 92.973 8.43466 93.6731 8.43466C94.3524 8.43466 94.9062 8.68351 95.3346 9.18123C95.7631 9.66835 95.9773 10.272 95.9773 10.9921C95.9773 11.6063 95.8153 12.104 95.4914 12.4852C95.1674 12.8558 94.7756 13.0412 94.3158 13.0412C93.856 13.0412 93.4589 12.8664 93.1245 12.517C92.8006 12.1675 92.6386 11.781 92.6386 11.3574C92.6386 10.8279 92.7274 10.4573 92.9051 10.2455C93.0932 10.0337 93.1872 9.89603 93.1872 9.83249C93.1872 9.716 93.1036 9.65776 92.9364 9.65776C92.414 9.65776 91.9124 10.1767 91.4317 11.2144C90.9615 12.2522 90.7264 13.936 90.7264 16.2657V20.6339H93.0618V21.6029H84.8171V20.6339H86.4473V9.80072H84.8171V8.81588H86.9018C88.0095 8.81588 88.8245 8.78411 89.347 8.72058L89.9113 8.62527H90.4599Z" fill="#1D1D1D"/>
<path d="M106.502 14.3119V11.4527C106.502 10.6797 106.408 10.1343 106.22 9.81661C106.031 9.49892 105.551 9.34007 104.777 9.34007C104.161 9.34007 103.68 9.43538 103.335 9.62599C102.991 9.80602 102.818 9.99133 102.818 10.1819C102.818 10.309 102.938 10.4996 103.179 10.7538C103.429 11.0079 103.555 11.3256 103.555 11.7069C103.555 12.2575 103.351 12.7341 102.944 13.1365C102.536 13.5283 102.024 13.7242 101.407 13.7242C100.843 13.7242 100.357 13.5389 99.9498 13.1682C99.5422 12.787 99.3385 12.3264 99.3385 11.7863C99.3385 10.8544 99.8819 10.0655 100.969 9.41949C102.066 8.76294 103.581 8.43466 105.514 8.43466C107.008 8.43466 108.257 8.62527 109.26 9.0065C110.274 9.38772 110.781 10.2455 110.781 11.5798V18.283C110.781 19.4373 111.099 20.0144 111.737 20.0144C111.915 20.0144 112.16 19.9138 112.474 19.7126L112.897 20.4274C112.009 21.4758 110.979 22 109.809 22C108.586 22 107.562 21.3593 106.737 20.078C105.368 21.3593 103.847 22 102.176 22C101.047 22 100.159 21.7035 99.5109 21.1105C98.863 20.5069 98.5391 19.7603 98.5391 18.8708C98.5391 16.0433 101.193 14.5237 106.502 14.3119ZM106.502 17.2188V15.1538C105.091 15.2067 104.109 15.4344 103.555 15.8368C103.001 16.2286 102.724 16.8905 102.724 17.8224C102.724 18.5425 102.897 19.109 103.241 19.522C103.586 19.935 104.03 20.1415 104.574 20.1415C105.19 20.1415 105.666 19.935 106 19.522C106.334 19.109 106.502 18.3413 106.502 17.2188Z" fill="#1D1D1D"/>
<path d="M121.446 9.80072V20.6339H123.907V21.6029H115.176V20.6339H117.198V9.80072H114.988V8.81588H117.198C117.293 2.93863 119.294 0 123.202 0C124.268 0 125.151 0.243562 125.851 0.730686C126.551 1.21781 126.901 1.87437 126.901 2.70036C126.901 3.28279 126.702 3.76992 126.305 4.16173C125.908 4.55355 125.443 4.74946 124.91 4.74946C124.398 4.74946 123.97 4.59061 123.625 4.27292C123.28 3.94464 123.108 3.53165 123.108 3.03393C123.108 2.56799 123.233 2.19735 123.484 1.92202C123.745 1.6361 123.876 1.45078 123.876 1.36606C123.876 1.05897 123.599 0.905415 123.045 0.905415C122.502 0.905415 122.063 1.11721 121.728 1.54079C121.404 1.96438 121.242 2.51504 121.242 3.19278L121.446 7.10036V8.81588H123.719V9.80072H121.446Z" fill="#1D1D1D"/>
<path d="M134.855 14.3119V11.4527C134.855 10.6797 134.761 10.1343 134.573 9.81661C134.384 9.49892 133.904 9.34007 133.131 9.34007C132.514 9.34007 132.033 9.43538 131.688 9.62599C131.344 9.80602 131.171 9.99133 131.171 10.1819C131.171 10.309 131.291 10.4996 131.532 10.7538C131.783 11.0079 131.908 11.3256 131.908 11.7069C131.908 12.2575 131.704 12.7341 131.297 13.1365C130.889 13.5283 130.377 13.7242 129.761 13.7242C129.196 13.7242 128.71 13.5389 128.303 13.1682C127.895 12.787 127.692 12.3264 127.692 11.7863C127.692 10.8544 128.235 10.0655 129.322 9.41949C130.419 8.76294 131.934 8.43466 133.867 8.43466C135.361 8.43466 136.61 8.62527 137.613 9.0065C138.627 9.38772 139.134 10.2455 139.134 11.5798V18.283C139.134 19.4373 139.453 20.0144 140.09 20.0144C140.268 20.0144 140.513 19.9138 140.827 19.7126L141.25 20.4274C140.362 21.4758 139.332 22 138.162 22C136.939 22 135.915 21.3593 135.09 20.078C133.721 21.3593 132.201 22 130.529 22C129.4 22 128.512 21.7035 127.864 21.1105C127.216 20.5069 126.892 19.7603 126.892 18.8708C126.892 16.0433 129.546 14.5237 134.855 14.3119ZM134.855 17.2188V15.1538C133.444 15.2067 132.462 15.4344 131.908 15.8368C131.354 16.2286 131.077 16.8905 131.077 17.8224C131.077 18.5425 131.25 19.109 131.594 19.522C131.939 19.935 132.383 20.1415 132.927 20.1415C133.543 20.1415 134.019 19.935 134.353 19.522C134.688 19.109 134.855 18.3413 134.855 17.2188Z" fill="#1D1D1D"/>
<path d="M153.028 8.43466V12.3899H152.072C151.487 10.399 150.222 9.40361 148.279 9.40361C147.547 9.40361 146.915 9.58363 146.382 9.94368C145.849 10.2931 145.583 10.722 145.583 11.2303C145.583 11.6645 145.787 11.9981 146.194 12.231C146.612 12.464 147.668 12.6652 149.36 12.8347C151.053 13.0041 152.25 13.4594 152.95 14.2007C153.65 14.942 154 15.8898 154 17.044C154 18.4948 153.556 19.6862 152.668 20.618C151.79 21.5393 150.599 22 149.094 22C147.61 22 146.387 21.5552 145.426 20.6657L144.439 21.4758H143.718V16.8217H144.658C145.337 19.575 146.826 20.9516 149.125 20.9516C149.951 20.9516 150.661 20.7557 151.257 20.3639C151.863 19.9721 152.166 19.4744 152.166 18.8708C152.166 18.4472 152.004 18.103 151.68 17.8383C151.367 17.5735 150.609 17.3723 149.407 17.2347C148.216 17.097 147.234 16.9117 146.461 16.6787C145.687 16.4351 145.055 16.001 144.564 15.3762C144.073 14.7408 143.827 13.8989 143.827 12.8505C143.827 11.6433 144.245 10.6055 145.081 9.73718C145.917 8.86883 147.072 8.43466 148.545 8.43466C149.59 8.43466 150.593 8.73646 151.555 9.34007L152.291 8.43466H153.028Z" fill="#1D1D1D"/>
</svg>
