<svg width="28" height="34" viewBox="0 0 28 34" fill="none" xmlns="http://www.w3.org/2000/svg">
<path d="M26.8571 14.1433C26.8571 24.1433 14 32.7147 14 32.7147C14 32.7147 1.14282 24.1433 1.14282 14.1433C1.14282 10.7334 2.49741 7.46309 4.90859 5.0519C7.31977 2.64072 10.59 1.28613 14 1.28613C17.4099 1.28613 20.6802 2.64072 23.0913 5.0519C25.5025 7.46309 26.8571 10.7334 26.8571 14.1433Z" stroke="#1D1D1D" stroke-width="2" stroke-linecap="round" stroke-linejoin="round"/>
<path d="M14 18.429C16.3669 18.429 18.2857 16.5102 18.2857 14.1433C18.2857 11.7763 16.3669 9.85756 14 9.85756C11.633 9.85756 9.71425 11.7763 9.71425 14.1433C9.71425 16.5102 11.633 18.429 14 18.429Z" stroke="#1D1D1D" stroke-width="2" stroke-linecap="round" stroke-linejoin="round"/>
</svg>
