<svg width="70" height="290" viewBox="0 0 70 290" fill="none" xmlns="http://www.w3.org/2000/svg">
<rect x="70" y="290" width="70" height="290" transform="rotate(180 70 290)" fill="#FE5D26"/>
<path d="M25.2 219.6C25.2 217.312 26.016 215.424 27.648 213.936C29.264 212.432 31.248 211.68 33.6 211.68C35.952 211.68 37.944 212.432 39.576 213.936C41.192 215.424 42 217.312 42 219.6V226.08H25.2V219.6ZM40.416 219.6C40.416 217.76 39.76 216.256 38.448 215.088C37.136 213.904 35.52 213.312 33.6 213.312C31.68 213.312 30.064 213.904 28.752 215.088C27.44 216.256 26.784 217.76 26.784 219.6V224.4H40.416V219.6ZM29.712 202.783C29.712 201.007 30.344 199.575 31.608 198.487C32.856 197.383 34.336 196.831 36.048 196.831C36.224 196.831 36.472 196.847 36.792 196.879L36.792 207.415C38.008 207.255 38.976 206.743 39.696 205.879C40.4 204.999 40.752 203.919 40.752 202.639C40.752 201.727 40.568 200.943 40.2 200.287C39.816 199.615 39.32 199.111 38.712 198.775L39.528 197.383C40.376 197.911 41.048 198.631 41.544 199.543C42.04 200.455 42.288 201.495 42.288 202.663C42.288 204.551 41.696 206.087 40.512 207.271C39.328 208.455 37.824 209.047 36 209.047C34.208 209.047 32.712 208.463 31.512 207.295C30.312 206.127 29.712 204.623 29.712 202.783ZM31.248 202.783C31.248 204.031 31.624 205.079 32.376 205.927C33.112 206.759 34.072 207.255 35.256 207.415L35.256 198.463C33.992 198.623 33.008 199.111 32.304 199.927C31.6 200.743 31.248 201.695 31.248 202.783ZM29.712 187.159C29.712 185.447 30.32 183.991 31.536 182.791C32.752 181.575 34.24 180.967 36 180.967C37.76 180.967 39.248 181.575 40.464 182.791C41.68 183.991 42.288 185.447 42.288 187.159C42.288 189.287 41.408 190.903 39.648 192.007H42V193.591H25.2V192.007H32.352C30.592 190.903 29.712 189.287 29.712 187.159ZM39.384 190.639C40.296 189.727 40.752 188.607 40.752 187.279C40.752 185.951 40.296 184.831 39.384 183.919C38.456 183.007 37.328 182.551 36 182.551C34.672 182.551 33.552 183.007 32.64 183.919C31.712 184.831 31.248 185.951 31.248 187.279C31.248 188.607 31.712 189.727 32.64 190.639C33.552 191.551 34.672 192.007 36 192.007C37.328 192.007 38.456 191.551 39.384 190.639ZM29.712 171.181C29.712 169.469 30.32 168.013 31.536 166.813C32.752 165.597 34.24 164.989 36 164.989C37.76 164.989 39.248 165.597 40.464 166.813C41.68 168.013 42.288 169.469 42.288 171.181C42.288 173.309 41.408 174.925 39.648 176.029H42V177.613H25.2V176.029H32.352C30.592 174.925 29.712 173.309 29.712 171.181ZM39.384 174.661C40.296 173.749 40.752 172.629 40.752 171.301C40.752 169.973 40.296 168.853 39.384 167.941C38.456 167.029 37.328 166.573 36 166.573C34.672 166.573 33.552 167.029 32.64 167.941C31.712 168.853 31.248 169.973 31.248 171.301C31.248 172.629 31.712 173.749 32.64 174.661C33.552 175.573 34.672 176.029 36 176.029C37.328 176.029 38.456 175.573 39.384 174.661ZM30 153.464V151.784L43.104 156.92C44.288 157.384 45.216 158.048 45.888 158.912C46.576 159.76 46.88 160.712 46.8 161.768H45.312C45.472 160.328 44.64 159.232 42.816 158.48L42.072 158.168L30 163.544V161.864L40.056 157.352L30 153.464ZM34.008 126.134H34.872C36.952 126.134 38.712 126.878 40.152 128.366C41.576 129.854 42.288 131.846 42.288 134.342C42.288 136.886 41.448 138.99 39.768 140.654C38.088 142.318 36.032 143.15 33.6 143.15C31.168 143.15 29.112 142.318 27.432 140.654C25.752 138.99 24.912 136.886 24.912 134.342C24.912 132.79 25.288 131.366 26.04 130.07C26.792 128.774 27.792 127.774 29.04 127.07L29.904 128.558C28.88 129.086 28.064 129.87 27.456 130.91C26.848 131.95 26.544 133.094 26.544 134.342C26.544 136.438 27.224 138.15 28.584 139.478C29.944 140.806 31.616 141.47 33.6 141.47C35.584 141.47 37.256 140.806 38.616 139.478C39.976 138.15 40.656 136.438 40.656 134.342C40.656 132.454 40.184 130.942 39.24 129.806C38.28 128.67 37.064 128.022 35.592 127.862L35.592 134.534H34.008V126.134ZM29.712 117.228C29.712 115.452 30.344 114.02 31.608 112.932C32.856 111.828 34.336 111.276 36.048 111.276C36.224 111.276 36.472 111.292 36.792 111.324L36.792 121.86C38.008 121.7 38.976 121.188 39.696 120.324C40.4 119.444 40.752 118.364 40.752 117.084C40.752 116.172 40.568 115.388 40.2 114.732C39.816 114.06 39.32 113.556 38.712 113.22L39.528 111.828C40.376 112.356 41.048 113.076 41.544 113.988C42.04 114.9 42.288 115.94 42.288 117.108C42.288 118.996 41.696 120.532 40.512 121.716C39.328 122.9 37.824 123.492 36 123.492C34.208 123.492 32.712 122.908 31.512 121.74C30.312 120.572 29.712 119.068 29.712 117.228ZM31.248 117.228C31.248 118.476 31.624 119.524 32.376 120.372C33.112 121.204 34.072 121.7 35.256 121.86L35.256 112.908C33.992 113.068 33.008 113.556 32.304 114.372C31.6 115.188 31.248 116.14 31.248 117.228ZM31.992 106.453C30.536 105.717 29.808 104.453 29.808 102.661H31.344C31.344 103.749 31.664 104.653 32.304 105.373C32.944 106.093 33.952 106.453 35.328 106.453H42V108.037H30V106.453H31.992ZM30 90.1762V88.5922H42V90.1762H39.648C41.408 91.2802 42.288 92.8962 42.288 95.0242C42.288 96.7362 41.68 98.2002 40.464 99.4162C39.248 100.616 37.76 101.216 36 101.216C34.24 101.216 32.752 100.616 31.536 99.4162C30.32 98.2002 29.712 96.7362 29.712 95.0242C29.712 92.8962 30.592 91.2802 32.352 90.1762H30ZM39.384 98.2642C40.296 97.3522 40.752 96.2322 40.752 94.9042C40.752 93.5762 40.296 92.4562 39.384 91.5442C38.456 90.6322 37.328 90.1762 36 90.1762C34.672 90.1762 33.552 90.6322 32.64 91.5442C31.712 92.4562 31.248 93.5762 31.248 94.9042C31.248 96.2322 31.712 97.3522 32.64 98.2642C33.552 99.1762 34.672 99.6322 36 99.6322C37.328 99.6322 38.456 99.1762 39.384 98.2642ZM31.992 82.9344C30.536 82.1984 29.808 80.9344 29.808 79.1424H31.344C31.344 80.2304 31.664 81.1344 32.304 81.8544C32.944 82.5744 33.952 82.9344 35.328 82.9344H42V84.5184H30V82.9344H31.992ZM25.2 66.6581V65.0741H42L42 66.6581H39.648C41.408 67.7621 42.288 69.3781 42.288 71.5061C42.288 73.2181 41.68 74.6821 40.464 75.8981C39.248 77.0981 37.76 77.6981 36 77.6981C34.24 77.6981 32.752 77.0981 31.536 75.8981C30.32 74.6821 29.712 73.2181 29.712 71.5061C29.712 69.3781 30.592 67.7621 32.352 66.6581H25.2ZM39.384 74.7461C40.296 73.8341 40.752 72.7141 40.752 71.3861C40.752 70.0581 40.296 68.9381 39.384 68.0261C38.456 67.1141 37.328 66.6581 36 66.6581C34.672 66.6581 33.552 67.1141 32.64 68.0261C31.712 68.9381 31.248 70.0581 31.248 71.3861C31.248 72.7141 31.712 73.8341 32.64 74.7461C33.552 75.6581 34.672 76.1141 36 76.1141C37.328 76.1141 38.456 75.6581 39.384 74.7461Z" fill="#1D1D1D"/>
</svg>
