<svg width="70" height="290" viewBox="0 0 70 290" fill="none" xmlns="http://www.w3.org/2000/svg">
<rect x="70" y="290" width="70" height="290" transform="rotate(180 70 290)" fill="#FE5D26"/>
<path d="M25.2 228.6C25.2 226.312 26.016 224.424 27.648 222.936C29.264 221.432 31.248 220.68 33.6 220.68C35.952 220.68 37.944 221.432 39.576 222.936C41.192 224.424 42 226.312 42 228.6V235.08H25.2V228.6ZM40.416 228.6C40.416 226.76 39.76 225.256 38.448 224.088C37.136 222.904 35.52 222.312 33.6 222.312C31.68 222.312 30.064 222.904 28.752 224.088C27.44 225.256 26.784 226.76 26.784 228.6V233.4H40.416V228.6ZM29.712 211.783C29.712 210.007 30.344 208.575 31.608 207.487C32.856 206.383 34.336 205.831 36.048 205.831C36.224 205.831 36.472 205.847 36.792 205.879L36.792 216.415C38.008 216.255 38.976 215.743 39.696 214.879C40.4 213.999 40.752 212.919 40.752 211.639C40.752 210.727 40.568 209.943 40.2 209.287C39.816 208.615 39.32 208.111 38.712 207.775L39.528 206.383C40.376 206.911 41.048 207.631 41.544 208.543C42.04 209.455 42.288 210.495 42.288 211.663C42.288 213.551 41.696 215.087 40.512 216.271C39.328 217.455 37.824 218.047 36 218.047C34.208 218.047 32.712 217.463 31.512 216.295C30.312 215.127 29.712 213.623 29.712 211.783ZM31.248 211.783C31.248 213.031 31.624 214.079 32.376 214.927C33.112 215.759 34.072 216.255 35.256 216.415L35.256 207.463C33.992 207.623 33.008 208.111 32.304 208.927C31.6 209.743 31.248 210.695 31.248 211.783ZM31.992 201.007C30.536 200.271 29.808 199.007 29.808 197.215H31.344C31.344 198.303 31.664 199.207 32.304 199.927C32.944 200.647 33.952 201.007 35.328 201.007H42V202.591H30V201.007H31.992ZM29.712 189.507C29.712 187.731 30.344 186.299 31.608 185.211C32.856 184.107 34.336 183.555 36.048 183.555C36.224 183.555 36.472 183.571 36.792 183.603V194.139C38.008 193.979 38.976 193.467 39.696 192.603C40.4 191.723 40.752 190.643 40.752 189.363C40.752 188.451 40.568 187.667 40.2 187.011C39.816 186.339 39.32 185.835 38.712 185.499L39.528 184.107C40.376 184.635 41.048 185.355 41.544 186.267C42.04 187.179 42.288 188.219 42.288 189.387C42.288 191.275 41.696 192.811 40.512 193.995C39.328 195.179 37.824 195.771 36 195.771C34.208 195.771 32.712 195.187 31.512 194.019C30.312 192.851 29.712 191.347 29.712 189.507ZM31.248 189.507C31.248 190.755 31.624 191.803 32.376 192.651C33.112 193.483 34.072 193.979 35.256 194.139V185.187C33.992 185.347 33.008 185.835 32.304 186.651C31.6 187.467 31.248 188.419 31.248 189.507ZM42 170.619V172.731L36.216 178.731H42V180.315H25.2L25.2 178.731H35.304L30 173.019V170.859L35.76 177.051L42 170.619ZM34.008 144.72H34.872C36.952 144.72 38.712 145.464 40.152 146.952C41.576 148.44 42.288 150.432 42.288 152.928C42.288 155.472 41.448 157.576 39.768 159.24C38.088 160.904 36.032 161.736 33.6 161.736C31.168 161.736 29.112 160.904 27.432 159.24C25.752 157.576 24.912 155.472 24.912 152.928C24.912 151.376 25.288 149.952 26.04 148.656C26.792 147.36 27.792 146.36 29.04 145.656L29.904 147.144C28.88 147.672 28.064 148.456 27.456 149.496C26.848 150.536 26.544 151.68 26.544 152.928C26.544 155.024 27.224 156.736 28.584 158.064C29.944 159.392 31.616 160.056 33.6 160.056C35.584 160.056 37.256 159.392 38.616 158.064C39.976 156.736 40.656 155.024 40.656 152.928C40.656 151.04 40.184 149.528 39.24 148.392C38.28 147.256 37.064 146.608 35.592 146.448V153.12H34.008L34.008 144.72ZM31.992 139.774C30.536 139.038 29.808 137.774 29.808 135.982H31.344C31.344 137.07 31.664 137.974 32.304 138.694C32.944 139.414 33.952 139.774 35.328 139.774H42V141.358H30V139.774H31.992ZM30 123.498V121.914H42V123.498H39.648C41.408 124.602 42.288 126.218 42.288 128.346C42.288 130.058 41.68 131.522 40.464 132.738C39.248 133.938 37.76 134.538 36 134.538C34.24 134.538 32.752 133.938 31.536 132.738C30.32 131.522 29.712 130.058 29.712 128.346C29.712 126.218 30.592 124.602 32.352 123.498H30ZM39.384 131.586C40.296 130.674 40.752 129.554 40.752 128.226C40.752 126.898 40.296 125.778 39.384 124.866C38.456 123.954 37.328 123.498 36 123.498C34.672 123.498 33.552 123.954 32.64 124.866C31.712 125.778 31.248 126.898 31.248 128.226C31.248 129.554 31.712 130.674 32.64 131.586C33.552 132.498 34.672 132.954 36 132.954C37.328 132.954 38.456 132.498 39.384 131.586ZM30 108.816H42V110.4H31.536L31.536 115.296H42V116.88H31.536V118.92H30V116.88H29.52C26.448 116.88 24.912 115.2 24.912 111.84C24.912 111.168 25.008 110.4 25.2 109.536H26.64C26.512 110.288 26.448 111.056 26.448 111.84C26.448 113.04 26.68 113.92 27.144 114.48C27.608 115.024 28.4 115.296 29.52 115.296H30L30 108.816ZM29.712 99.129C29.712 97.673 30.16 96.529 31.056 95.697C31.936 94.849 33.128 94.425 34.632 94.425H42V96.009H34.632C33.56 96.009 32.728 96.297 32.136 96.873C31.544 97.433 31.248 98.233 31.248 99.273C31.248 100.425 31.616 101.361 32.352 102.081C33.072 102.801 34.192 103.161 35.712 103.161H42V104.745H30V103.161H31.872C30.432 102.265 29.712 100.921 29.712 99.129ZM25.2 80.3222V78.7382H42V80.3222H39.648C41.408 81.4262 42.288 83.0422 42.288 85.1702C42.288 86.8822 41.68 88.3462 40.464 89.5622C39.248 90.7622 37.76 91.3622 36 91.3622C34.24 91.3622 32.752 90.7622 31.536 89.5622C30.32 88.3462 29.712 86.8822 29.712 85.1702C29.712 83.0422 30.592 81.4262 32.352 80.3222H25.2ZM39.384 88.4102C40.296 87.4982 40.752 86.3782 40.752 85.0502C40.752 83.7222 40.296 82.6022 39.384 81.6902C38.456 80.7782 37.328 80.3222 36 80.3222C34.672 80.3222 33.552 80.7782 32.64 81.6902C31.712 82.6022 31.248 83.7222 31.248 85.0502C31.248 86.3782 31.712 87.4982 32.64 88.4102C33.552 89.3222 34.672 89.7782 36 89.7782C37.328 89.7782 38.456 89.3222 39.384 88.4102ZM40.488 64.6084C41.688 65.8244 42.288 67.3124 42.288 69.0724C42.288 70.8324 41.688 72.3284 40.488 73.5604C39.272 74.7764 37.776 75.3844 36 75.3844C34.224 75.3844 32.736 74.7764 31.536 73.5604C30.32 72.3284 29.712 70.8324 29.712 69.0724C29.712 67.3124 30.32 65.8244 31.536 64.6084C32.736 63.3764 34.224 62.7604 36 62.7604C37.776 62.7604 39.272 63.3764 40.488 64.6084ZM39.384 72.4324C40.296 71.5204 40.752 70.4004 40.752 69.0724C40.752 67.7444 40.296 66.6244 39.384 65.7124C38.456 64.8004 37.328 64.3444 36 64.3444C34.672 64.3444 33.552 64.8004 32.64 65.7124C31.712 66.6244 31.248 67.7444 31.248 69.0724C31.248 70.4004 31.712 71.5204 32.64 72.4324C33.552 73.3444 34.672 73.8004 36 73.8004C37.328 73.8004 38.456 73.3444 39.384 72.4324ZM31.992 57.8057C30.536 57.0697 29.808 55.8057 29.808 54.0137H31.344C31.344 55.1017 31.664 56.0057 32.304 56.7257C32.944 57.4457 33.952 57.8057 35.328 57.8057H42V59.3897H30V57.8057H31.992Z" fill="#1D1D1D"/>
</svg>
