<svg width="30" height="30" viewBox="0 0 30 30" fill="none" xmlns="http://www.w3.org/2000/svg">
<path d="M28.3333 20.8333C26.3333 20.8333 24.1667 20.5 22.3333 19.8333C22.1667 19.8333 22 19.8333 21.8333 19.8333C21.3333 19.8333 21 20 20.6667 20.3333L17 24C12.3333 21.5 8.33333 17.6667 6 13L9.66667 9.33333C10.1667 8.83333 10.3333 8.16667 10 7.66667C9.5 5.83333 9.16667 3.66667 9.16667 1.66667C9.16667 0.833333 8.33333 0 7.5 0H1.66667C0.833333 0 0 0.833333 0 1.66667C0 17.3333 12.6667 30 28.3333 30C29.1667 30 30 29.1667 30 28.3333V22.5C30 21.6667 29.1667 20.8333 28.3333 20.8333ZM3.33333 3.33333H5.83333C6 4.83333 6.33333 6.33333 6.66667 7.66667L4.66667 9.66667C4 7.66667 3.5 5.5 3.33333 3.33333ZM26.6667 26.6667C24.5 26.5 22.3333 26 20.3333 25.3333L22.3333 23.3333C23.6667 23.6667 25.1667 24 26.6667 24V26.6667Z" fill="#1D1D1D"/>
</svg>
